<?xml version="1.0" standalone="no"?>
<!DOCTYPE svg PUBLIC "-//W3C//DTD SVG 20010904//EN"
 "http://www.w3.org/TR/2001/REC-SVG-20010904/DTD/svg10.dtd">
<svg version="1.0" xmlns="http://www.w3.org/2000/svg"
 width="512.000000pt" height="512.000000pt" viewBox="0 0 512.000000 512.000000"
 preserveAspectRatio="xMidYMid meet">

<g transform="translate(0.000000,512.000000) scale(0.100000,-0.100000)"
fill="#000000" stroke="none">
<path d="M2331 5109 c-479 -43 -926 -216 -1318 -510 -127 -96 -344 -307 -446
-434 -507 -632 -682 -1438 -486 -2235 82 -331 260 -689 479 -965 340 -427 849
-755 1370 -884 716 -177 1440 -54 2043 346 276 183 544 451 722 723 400 608
520 1325 344 2040 -42 169 -96 316 -184 495 -248 508 -664 924 -1170 1170
-183 89 -309 136 -480 180 -295 75 -584 100 -874 74z m574 -559 c591 -110
1086 -451 1393 -961 256 -428 343 -957 237 -1455 -162 -767 -782 -1387 -1549
-1549 -318 -68 -664 -56 -971 31 -344 97 -623 262 -881 519 -371 370 -571 830
-590 1355 -7 185 4 323 41 496 177 840 890 1485 1751 1584 129 15 442 4 569
-20z"/>
<path d="M2116 3549 c-52 -13 -93 -43 -116 -89 -19 -38 -20 -62 -20 -900 0
-838 1 -862 20 -900 47 -92 168 -122 259 -64 77 50 1121 802 1149 828 47 43
62 77 62 136 0 59 -15 93 -62 136 -36 34 -1103 800 -1158 832 -45 26 -86 32
-134 21z"/>
</g>
</svg>
